<svg width="360" height="92" viewBox="0 0 360 92" xmlns="http://www.w3.org/2000/svg"><path d="M146.35 64.13v-38.8h2.82v17.56c2.83-2.89 6.02-4.33 9.58-4.33 3.46 0 6.3 1.2 8.5 3.62 2.21 2.41 3.32 5.52 3.32 9.33 0 4.42-1.35 7.96-4.05 10.62-2.7 2.66-6.3 4-10.77 4-2.94 0-6.08-.67-9.4-2zm2.82-18.07v16.06c2.2.82 4.37 1.23 6.52 1.23 3.42 0 6.25-1.1 8.49-3.3a11.23 11.23 0 0 0 3.36-8.37c0-3.13-.87-5.7-2.6-7.73a8.25 8.25 0 0 0-6.54-3.02c-3.15 0-6.23 1.7-9.23 5.13zm45.99 19.54v-4.38h-.12a12.45 12.45 0 0 1-3.79 3.78 9.78 9.78 0 0 1-4.94 1.12c-2.85 0-5.2-.92-7.07-2.77-1.86-1.84-2.8-4.45-2.8-7.84V39.08h2.83v16.38c0 2.46.68 4.39 2.02 5.79a6.94 6.94 0 0 0 5.25 2.1 8.5 8.5 0 0 0 4.71-1.26c1.3-.85 2.6-2.31 3.9-4.39V39.08h2.83V65.6h-2.82zm13.55-40.27v4.84h-2.86v-4.84h2.86zm0 13.75V65.6h-2.86V39.08h2.86zm11.1-13.75V65.6h-2.86V25.33h2.86zm30.64 0V65.6h-2.85v-2.07a13.23 13.23 0 0 1-7.84 2.6c-3.77 0-6.95-1.34-9.53-4a13.55 13.55 0 0 1-3.88-9.82c0-3.94 1.28-7.21 3.82-9.83a12.83 12.83 0 0 1 9.59-3.92c2.44 0 5.05.71 7.84 2.13V25.33h2.85zm-2.85 35.6V43.81a14.02 14.02 0 0 0-7.73-2.48 10.1 10.1 0 0 0-7.55 3.04c-1.98 2.03-2.97 4.62-2.97 7.77a10.92 10.92 0 0 0 11.1 11.21c2.46 0 4.84-.8 7.15-2.42zm22.43-22.37c3.84 0 7.05 1.32 9.61 3.95a13.56 13.56 0 0 1 3.85 9.86c0 3.92-1.28 7.2-3.85 9.82a12.9 12.9 0 0 1-9.61 3.93 13 13 0 0 1-9.64-3.93 13.43 13.43 0 0 1-3.88-9.82c0-3.94 1.29-7.23 3.88-9.86a12.97 12.97 0 0 1 9.64-3.95zm0 24.8a9.92 9.92 0 0 0 7.47-3.13c2-2.09 3-4.7 3-7.86 0-3.13-1.01-5.76-3.02-7.87a9.87 9.87 0 0 0-7.45-3.17 10 10 0 0 0-7.51 3.14 10.96 10.96 0 0 0-3.01 7.9c0 3.15 1 5.77 3 7.86a10 10 0 0 0 7.52 3.12zm38.49-24.28l.23.9L291.33 63h17.42v2.6h-21.83l-.31-.9 17.55-23h-16.43v-2.63h20.79zm27.15 12.28h-20.9c-.06.46-.08.92-.08 1.39a10.1 10.1 0 0 0 3.17 7.52 10.4 10.4 0 0 0 7.5 3.08c3.36 0 6.64-1.31 9.85-3.94v3.2a16.28 16.28 0 0 1-10.2 3.51c-3.83 0-6.99-1.32-9.49-3.98-2.5-2.65-3.75-6.02-3.75-10.12 0-3.88 1.16-7.1 3.46-9.64a11.25 11.25 0 0 1 8.71-3.82c3.29 0 6.06 1.15 8.33 3.45 2.27 2.3 3.4 5.41 3.4 9.35zm-20.52-2.28h17.18c-1-5.17-3.8-7.75-8.39-7.75a8.4 8.4 0 0 0-5.64 2.03 9.95 9.95 0 0 0-3.15 5.72zm44.57-7.38l-1.65 2.66c-2.2-2.02-3.98-3.03-5.33-3.03-2.65 0-5.49 2.54-8.5 7.61V65.6h-2.83V39.08h2.83v6.98h.11c3.17-5 6.27-7.5 9.29-7.5 1.72 0 3.75 1.05 6.08 3.14z"/><polygon fill="#37474F" points="73.6 20.77 79.48 20.77 79.48 35.47 73.6 35.47"/><polygon fill="#607D8B" points="79.48 67.79 105.92 67.79 105.92 73.67 79.48 73.67"/><path d="M91.23 73.67H8.95a5.9 5.9 0 0 1-5.87-5.88v-23.5c0-6.47 5.28-11.76 11.75-11.76h76.4a5.9 5.9 0 0 1 5.88 5.88v29.38a5.9 5.9 0 0 1-5.88 5.88z" fill="#FFC107"/><path d="M19.24 88.36A16.3 16.3 0 0 1 3.08 72.2a16.3 16.3 0 0 1 16.16-16.16h52.89A16.3 16.3 0 0 1 88.29 72.2a16.3 16.3 0 0 1-16.16 16.16h-52.9z" fill="#37474F"/><path d="M72.13 58.97c7.35 0 13.22 5.88 13.22 13.23 0 7.34-5.87 13.22-13.22 13.22h-52.9A13.17 13.17 0 0 1 6.02 72.2c0-7.35 5.88-13.23 13.23-13.23h52.89zm0-5.87h-52.9A19.06 19.06 0 0 0 .14 72.2c0 10.58 8.53 19.1 19.1 19.1h52.9c10.58 0 19.1-8.52 19.1-19.1 0-10.58-8.52-19.1-19.1-19.1z" fill="#607D8B"/><path d="M19.24 67.79a4.52 4.52 0 0 0-4.41 4.4 4.52 4.52 0 0 0 4.4 4.42c2.36 0 4.41-2.06 4.41-4.41s-2.05-4.41-4.4-4.41zm17.63 0a4.52 4.52 0 0 0-4.41 4.4 4.52 4.52 0 0 0 4.4 4.42c2.36 0 4.42-2.06 4.42-4.41s-2.06-4.41-4.41-4.41zm17.63 0a4.52 4.52 0 0 0-4.4 4.4 4.52 4.52 0 0 0 4.4 4.42c2.35 0 4.4-2.06 4.4-4.41s-2.05-4.41-4.4-4.41zm17.63 0a4.52 4.52 0 0 0-4.4 4.4 4.52 4.52 0 0 0 4.4 4.42c2.35 0 4.4-2.06 4.4-4.41s-2.05-4.41-4.4-4.41zm30.85-35.26v55.83h26.45v-5.88s-20.57-1.17-20.57-49.95h-5.88zM58.91 38.4L56.85 6.08A5.9 5.9 0 0 0 50.97.21h-33.2a5.9 5.9 0 0 0-5.88 5.87v32.33h47.02z" fill="#FFC107"/><path d="M58.53 32.53l.38 6.17a6.04 6.04 0 0 0 5.88 5.58H97.1v-5.87a5.48 5.48 0 0 0-5.58-5.88h-33z" fill="#5F7C8A"/><polygon fill="#BBDEFB" points="20.71 35.47 20.71 9.02 54.21 9.02 55.97 35.47"/><path d="M51.27 11.96l1.17 20.57h-28.8V11.96h27.63zm5.58-5.88H20.71a2.94 2.94 0 0 0-2.94 2.94v29.39H58.9L56.85 6.08z" fill="#37474F"/></svg>
