<svg width="441" height="112" viewBox="0 0 441 112" xmlns="http://www.w3.org/2000/svg"><path d="M179.8 30.9H190c5.4 0 9.4 1.1 12.2 3.4 2.8 2.2 4.1 5.3 4.1 9.3 0 4.7-2.3 8.4-7 11 7.5 1.6 11.3 5.7 11.3 12.4 0 4-1.4 7.1-4.4 9.5-3 2.3-7 3.5-12 3.5h-14.4V30.9zm3.8 3.2v19.5h5.2c9 0 13.4-3.2 13.4-9.7 0-6.6-4.5-9.8-13.5-9.8h-5.1zm0 22.7v20h10.1c4.2 0 7.4-.9 9.6-2.7a9 9 0 0 0 3.3-7.2c0-6.7-4.9-10-14.5-10h-8.5zM239.5 80v-5.3h-.1c-1.5 2.1-3 3.6-4.7 4.6a12 12 0 0 1-6 1.3c-3.5 0-6.3-1-8.6-3.3s-3.4-5.5-3.4-9.6v-20h3.4v20c0 3 .8 5.3 2.5 7a8.5 8.5 0 0 0 6.4 2.6c2.2 0 4.2-.6 5.7-1.6 1.6-1 3.2-2.8 4.8-5.3V47.7h3.4V80h-3.4zM256 30.9v5.9h-3.5v-6h3.5zm0 16.8V80h-3.5V47.7h3.5zm13.6-16.8V80H266V30.9h3.5zm37.3 0V80h-3.5v-2.5a16.1 16.1 0 0 1-21.1-1.7 16.5 16.5 0 0 1-4.8-12c0-4.8 1.6-8.8 4.7-12 3.1-3.2 7-4.8 11.7-4.8 3 0 6.1.9 9.5 2.6V31h3.5zm-3.5 43.4V53.4c-3-2-6.2-3-9.4-3-3.7 0-6.8 1.2-9.2 3.7a13 13 0 0 0-3.6 9.5 13.3 13.3 0 0 0 13.5 13.7c3 0 6-1 8.7-3zM330.8 47c4.7 0 8.6 1.6 11.7 4.8 3.2 3.3 4.7 7.3 4.7 12 0 4.8-1.5 8.8-4.7 12-3.1 3.2-7 4.8-11.7 4.8a16.4 16.4 0 0 1-16.5-16.8c0-4.7 1.6-8.7 4.7-12 3.2-3.2 7.1-4.8 11.8-4.8zm0 30.3c3.6 0 6.7-1.3 9.1-3.9 2.4-2.5 3.7-5.7 3.7-9.5 0-3.9-1.3-7-3.7-9.6a12 12 0 0 0-9.1-3.9c-3.7 0-6.7 1.3-9.2 3.8A13.4 13.4 0 0 0 318 64c0 3.8 1.2 7 3.6 9.5 2.5 2.6 5.5 3.9 9.2 3.9zm47-29.6l.2 1-21.2 28.1H378V80h-26.6l-.4-1 21.4-28.1h-20v-3.2h25.3zm33 15h-25.4l-.1 1.6c0 3.6 1.2 6.7 3.8 9.2 2.6 2.5 5.6 3.8 9.2 3.8 4 0 8-1.6 12-4.9v4a19.9 19.9 0 0 1-12.5 4.2c-4.6 0-8.5-1.6-11.5-4.8-3-3.3-4.6-7.4-4.6-12.4 0-4.7 1.4-8.6 4.2-11.7 2.8-3.1 6.4-4.7 10.6-4.7 4 0 7.4 1.4 10.2 4.2 2.8 2.8 4.1 6.6 4.1 11.4zm-25-2.8h21c-1.2-6.3-4.7-9.5-10.3-9.5-2.6 0-4.9.8-6.8 2.5-2 1.6-3.3 4-3.9 7zm54.4-9l-2 3.2c-2.7-2.5-4.9-3.7-6.5-3.7-3.3 0-6.7 3-10.4 9.3V80h-3.5V47.7h3.5v8.5h.1c3.9-6.1 7.7-9.2 11.4-9.2 2 0 4.5 1.3 7.4 3.9z"/><polygon fill="#37474F" points="89.8 25.3 96.9 25.3 96.9 43.3 89.8 43.3"/><polygon fill="#607D8B" points="96.9 82.7 129.2 82.7 129.2 89.8 96.9 89.8"/><path d="M111.3 89.8H10.8c-4 0-7.2-3.2-7.2-7.1V54c0-7.9 6.5-14.3 14.4-14.3h93.1c4 0 7.2 3.2 7.2 7.1v35.9c0 4-3.2 7.1-7.2 7.1z" fill="#FFC107"/><path d="M23.5 107.8c-10.8 0-19.8-9-19.8-19.8 0-10.7 9-19.7 19.8-19.7H88c10.7 0 19.7 9 19.7 19.7 0 10.8-9 19.8-19.7 19.8H23.5z" fill="#37474F"/><path d="M88 72a16 16 0 0 1 16 16 16 16 0 0 1-16 16.2H23.5A16 16 0 0 1 7.3 88a16 16 0 0 1 16.2-16H88zm0-7.3H23.5a23.2 23.2 0 1 0 0 46.6H88a23.2 23.2 0 1 0 0-46.5z" fill="#607D8B"/><path d="M23.5 82.7A5.5 5.5 0 0 0 18 88c0 3 2.5 5.4 5.4 5.4 2.8 0 5.3-2.5 5.3-5.4 0-2.8-2.5-5.3-5.3-5.3zm21.5 0a5.5 5.5 0 0 0-5.4 5.3c0 3 2.5 5.4 5.4 5.4 2.8 0 5.3-2.5 5.3-5.4 0-2.8-2.5-5.3-5.3-5.3zm21.5 0A5.5 5.5 0 0 0 61 88c0 3 2.5 5.4 5.4 5.4 2.8 0 5.3-2.5 5.3-5.4 0-2.8-2.5-5.3-5.3-5.3zm21.5 0a5.5 5.5 0 0 0-5.4 5.3c0 3 2.5 5.4 5.4 5.4 2.8 0 5.3-2.5 5.3-5.4 0-2.8-2.5-5.3-5.3-5.3zm37.6-43v68h32.2v-7.1s-25-1.4-25-61h-7.2zm-53.8 7.1L69.3 7.4c0-4-3.2-7.2-7.1-7.2H21.7c-4 0-7.2 3.3-7.2 7.2v39.4h57.3z" fill="#FFC107"/><path d="M71.4 39.7l.4 7.5c.4 4 3.6 6.8 7.2 6.8h39.4v-7.2c.4-4-2.8-7.1-6.8-7.1H71.4z" fill="#5F7C8A"/><polygon fill="#BBDEFB" points="25.3 43.3 25.3 11 66.1 11 68.3 43.3"/><path d="M62.5 14.6l1.5 25H28.8v-25h33.7zm6.8-7.2h-44a3.6 3.6 0 0 0-3.6 3.6v35.8h50.1L69.3 7.4z" fill="#37474F"/></svg>
