<svg xmlns="http://www.w3.org/2000/svg" viewBox="0 0 312.4 58" fill="#37383d" width="160" height="29.8"><path d="M255.1 42.4V25a1.4 1.4 0 0 1 1.4-1.4h4.4a1.4 1.4 0 0 0 1.4-1.5V14a1.4 1.4 0 0 0-1.4-1.5h-4.4a1.4 1.4 0 0 1-1.4-1.4V1.4a1.4 1.4 0 0 0-1.4-1.4h-10.2a1.4 1.4 0 0 0-1.4 1.4V11a1.4 1.4 0 0 1-1.4 1.4h-1.4a1.4 1.4 0 0 0-1.5 1.5V22a1.4 1.4 0 0 0 1.5 1.5h1.4A1.4 1.4 0 0 1 242 25v24a8.6 8.6 0 0 0 8.6 8.6h4.4z"/><path d="M92.5 42.4V25a1.4 1.4 0 0 1 1.5-1.4h4.3a1.4 1.4 0 0 0 1.5-1.5V14a1.4 1.4 0 0 0-1.5-1.5H94a1.4 1.4 0 0 1-1.5-1.4V1.4A1.4 1.4 0 0 0 91.1 0H81a1.4 1.4 0 0 0-1.4 1.4V11a1.4 1.4 0 0 1-1.5 1.4h-1.4a1.4 1.4 0 0 0-1.4 1.5V22a1.4 1.4 0 0 0 1.4 1.5h1.4a1.4 1.4 0 0 1 1.4 1.4v24a8.6 8.6 0 0 0 8.6 8.6h4.4z"/><path d="M288.9 11a23.5 23.5 0 1 0 23.5 23.5A23.5 23.5 0 0 0 288.9 11zm0 34.9a11.4 11.4 0 1 1 11.4-11.4A11.4 11.4 0 0 1 289 45.9z"/><path d="M213.7 11a24.1 24.1 0 0 0-18 8 23.3 23.3 0 0 0-5.7 18.7 23.8 23.8 0 0 0 19.2 19.8 24.5 24.5 0 0 0 4.4.4c7.3 0 13.6-3 18.7-8.7l.3-.4-3-3a9 9 0 0 0-10.6-1.6 11.4 11.4 0 0 1-13.6-2.2 10.8 10.8 0 0 1-3-8.4 11.2 11.2 0 0 1 8.3-9.8 11.4 11.4 0 0 1 11.4 3.4 2 2 0 0 0 1.4.6 2 2 0 0 0 1.5-.6l6-6.3a1.9 1.9 0 0 0 0-2.6 24.2 24.2 0 0 0-17.3-7.3z"/><path d="M160 11a23.5 23.5 0 0 0-4.4 46.5 23.8 23.8 0 0 0 15.8-2.5l.3-.2.3.2a10.8 10.8 0 0 0 7 2.6h3.4v-43a2.3 2.3 0 0 0-2.2-2.2h-12.4A23.4 23.4 0 0 0 160 11zm.2 35a11.5 11.5 0 1 1 11.6-11.5A11.6 11.6 0 0 1 160.2 46z"/><path d="M1.4 12.4h10.2a1.4 1.4 0 0 1 1.4 1.4v43.8H8.7A8.7 8.7 0 0 1 0 48.9V14a1.4 1.4 0 0 1 1.4-1.5"/><path d="M131.3 12.4h-21.8a1.4 1.4 0 0 0-1.4 1.4v43.8h4.3a8.4 8.4 0 0 0 8.4-8.7V33.6a9.7 9.7 0 0 1 10-10.3h.7a1.3 1.3 0 0 0 1.3-1.2v-8.3c0-.8-.4-1.4-1.5-1.4z"/><path d="M66 29.3A18.3 18.3 0 0 0 47.6 11a32.5 32.5 0 0 0-8 1.4H27.9a1.4 1.4 0 0 0-1.4 1.4V49a8.7 8.7 0 0 0 8.6 8.7h4.3V30.3a6.7 6.7 0 1 1 13.5.1v18.5a8.7 8.7 0 0 0 8.6 8.7H66z"/><path d="M255.1 42.4V25a1.4 1.4 0 0 1 1.4-1.4h4.4a1.4 1.4 0 0 0 1.4-1.5V14a1.4 1.4 0 0 0-1.4-1.5h-4.4a1.4 1.4 0 0 1-1.4-1.4V1.4a1.4 1.4 0 0 0-1.4-1.4h-10.2a1.4 1.4 0 0 0-1.4 1.4V11a1.4 1.4 0 0 1-1.4 1.4h-1.4a1.4 1.4 0 0 0-1.5 1.5V22a1.4 1.4 0 0 0 1.5 1.5h1.4A1.4 1.4 0 0 1 242 25v24a8.6 8.6 0 0 0 8.6 8.6h4.4z"/><path d="M92.5 42.4V25a1.4 1.4 0 0 1 1.5-1.4h4.3a1.4 1.4 0 0 0 1.5-1.5V14a1.4 1.4 0 0 0-1.5-1.5H94a1.4 1.4 0 0 1-1.5-1.4V1.4A1.4 1.4 0 0 0 91.1 0H81a1.4 1.4 0 0 0-1.4 1.4V11a1.4 1.4 0 0 1-1.5 1.4h-1.4a1.4 1.4 0 0 0-1.4 1.5V22a1.4 1.4 0 0 0 1.4 1.5h1.4a1.4 1.4 0 0 1 1.4 1.4v24a8.6 8.6 0 0 0 8.6 8.6h4.4z"/><path d="M288.9 11a23.5 23.5 0 1 0 23.5 23.5A23.5 23.5 0 0 0 288.9 11zm0 34.9a11.4 11.4 0 1 1 11.4-11.4A11.4 11.4 0 0 1 289 45.9z"/><path d="M213.7 11a24.1 24.1 0 0 0-18 8 23.3 23.3 0 0 0-5.7 18.7 23.8 23.8 0 0 0 19.2 19.8 24.5 24.5 0 0 0 4.4.4c7.3 0 13.6-3 18.7-8.7l.3-.4-3-3a9 9 0 0 0-10.6-1.6 11.4 11.4 0 0 1-13.6-2.2 10.8 10.8 0 0 1-3-8.4 11.2 11.2 0 0 1 8.3-9.8 11.4 11.4 0 0 1 11.4 3.4 2 2 0 0 0 1.4.6 2 2 0 0 0 1.5-.6l6-6.3a1.9 1.9 0 0 0 0-2.6 24.2 24.2 0 0 0-17.3-7.3z"/><path d="M160 11a23.5 23.5 0 0 0-4.4 46.5 23.8 23.8 0 0 0 15.8-2.5l.3-.2.3.2a10.8 10.8 0 0 0 7 2.6h3.4v-43a2.3 2.3 0 0 0-2.2-2.2h-12.4A23.4 23.4 0 0 0 160 11zm.2 35a11.5 11.5 0 1 1 11.6-11.5A11.6 11.6 0 0 1 160.2 46z"/><path d="M1.4 12.4h10.2a1.4 1.4 0 0 1 1.4 1.4v43.8H8.7A8.7 8.7 0 0 1 0 48.9V14a1.4 1.4 0 0 1 1.4-1.5"/><path d="M131.3 12.4h-21.8a1.4 1.4 0 0 0-1.4 1.4v43.8h4.3a8.4 8.4 0 0 0 8.4-8.7V33.6a9.7 9.7 0 0 1 10-10.3h.7a1.3 1.3 0 0 0 1.3-1.2v-8.3c0-.8-.4-1.4-1.5-1.4z"/><path d="M66 29.3A18.3 18.3 0 0 0 47.6 11a32.5 32.5 0 0 0-8 1.4H27.9a1.4 1.4 0 0 0-1.4 1.4V49a8.7 8.7 0 0 0 8.6 8.7h4.3V30.3a6.7 6.7 0 1 1 13.5.1v18.5a8.7 8.7 0 0 0 8.6 8.7H66z"/></svg>
